<svg width="512" height="512" viewBox="0 0 512 512" fill="none" xmlns="http://www.w3.org/2000/svg">
<path fill-rule="evenodd" clip-rule="evenodd" d="M316.558 204.558C330.201 190.915 348.705 183.25 368 183.25C387.294 183.25 405.799 190.915 419.442 204.558C433.085 218.201 440.75 236.705 440.75 256C440.75 275.294 433.085 293.799 419.442 307.442C405.799 321.085 387.294 328.75 368 328.75C348.705 328.75 330.201 321.085 316.558 307.442C302.915 293.799 295.25 275.294 295.25 256C295.25 236.705 302.915 218.201 316.558 204.558ZM368 199.417C352.993 199.417 338.601 205.378 327.99 215.99C317.378 226.601 311.417 240.993 311.417 256C311.417 271.007 317.378 285.399 327.99 296.01C338.601 306.622 352.993 312.583 368 312.583C383.007 312.583 397.399 306.622 408.01 296.01C418.622 285.399 424.583 271.007 424.583 256C424.583 240.993 418.622 226.601 408.01 215.99C397.399 205.378 383.007 199.417 368 199.417Z" fill="#F05050"/>
<path fill-rule="evenodd" clip-rule="evenodd" d="M368 167.083C372.464 167.083 376.084 170.703 376.084 175.167V191.333C376.084 195.798 372.464 199.417 368 199.417C363.536 199.417 359.917 195.798 359.917 191.333V175.167C359.917 170.703 363.536 167.083 368 167.083ZM323.543 178.998C327.409 176.766 332.353 178.091 334.584 181.958L363.561 232.16C365.015 231.889 366.5 231.75 368 231.75C374.432 231.75 380.6 234.305 385.148 238.853C387.729 241.435 389.669 244.539 390.863 247.917H448.834C453.298 247.917 456.917 251.536 456.917 256C456.917 260.464 453.298 264.084 448.834 264.084H390.863C389.669 267.462 387.729 270.566 385.148 273.148C380.6 277.695 374.432 280.25 368 280.25C366.5 280.25 365.015 280.111 363.561 279.841L334.584 330.043C332.353 333.909 327.409 335.234 323.543 333.003C319.676 330.771 318.351 325.827 320.583 321.961L349.563 271.753C345.825 267.378 343.75 261.796 343.75 256C343.75 250.204 345.825 244.623 349.563 240.248L320.583 190.039C318.351 186.173 319.676 181.229 323.543 178.998ZM363.662 249.179C363.168 249.494 362.705 249.863 362.284 250.284C360.768 251.8 359.917 253.856 359.917 256C359.917 258.144 360.768 260.2 362.284 261.716C362.705 262.137 363.168 262.506 363.662 262.821C363.761 262.873 363.86 262.927 363.958 262.984C364.058 263.042 364.157 263.102 364.254 263.163C365.4 263.762 366.684 264.084 368 264.084C370.144 264.084 372.2 263.232 373.716 261.716C375.232 260.2 376.084 258.144 376.084 256C376.084 253.856 375.232 251.8 373.716 250.284C372.2 248.768 370.144 247.917 368 247.917C366.684 247.917 365.4 248.238 364.254 248.837C364.157 248.899 364.058 248.959 363.958 249.017C363.86 249.073 363.762 249.127 363.662 249.179ZM412.462 179C416.327 181.234 417.649 186.179 415.415 190.044L407.332 204.028C405.098 207.893 400.153 209.215 396.288 206.981C392.423 204.747 391.101 199.802 393.335 195.937L401.419 181.953C403.653 178.088 408.597 176.766 412.462 179ZM291 211.538C293.234 207.673 298.179 206.351 302.044 208.585L316.028 216.669C319.893 218.903 321.215 223.847 318.981 227.712C316.747 231.577 311.802 232.899 307.937 230.665L293.953 222.582C290.088 220.348 288.766 215.403 291 211.538ZM445 211.538C447.234 215.403 445.912 220.348 442.047 222.582L428.063 230.665C424.198 232.899 419.254 231.577 417.019 227.712C414.785 223.847 416.107 218.903 419.972 216.669L433.957 208.585C437.822 206.351 442.766 207.673 445 211.538ZM279.083 256C279.083 251.536 282.703 247.917 287.167 247.917H303.333C307.798 247.917 311.417 251.536 311.417 256C311.417 260.464 307.798 264.084 303.333 264.084H287.167C282.703 264.084 279.083 260.464 279.083 256ZM417.019 284.288C419.254 280.423 424.198 279.101 428.063 281.335L442.047 289.419C445.912 291.653 447.234 296.597 445 300.462C442.766 304.327 437.822 305.649 433.957 303.415L419.972 295.332C416.107 293.098 414.785 288.153 417.019 284.288ZM318.981 284.288C321.215 288.153 319.893 293.098 316.028 295.332L302.044 303.415C298.179 305.649 293.234 304.327 291 300.462C288.766 296.597 290.088 291.653 293.953 289.419L307.937 281.335C311.802 279.101 316.747 280.423 318.981 284.288ZM396.288 305.019C400.153 302.785 405.098 304.107 407.332 307.972L415.415 321.957C417.649 325.822 416.327 330.766 412.462 333C408.597 335.234 403.653 333.912 401.419 330.047L393.335 316.063C391.101 312.198 392.423 307.254 396.288 305.019ZM368 312.584C372.464 312.584 376.084 316.203 376.084 320.667V336.834C376.084 341.298 372.464 344.917 368 344.917C363.536 344.917 359.917 341.298 359.917 336.834V320.667C359.917 316.203 363.536 312.584 368 312.584Z" fill="#F05050"/>
<path d="M46 159V353H99.6905V261.571L131.146 307.225H165.855L197.31 261.885V353H251V159H211.681L148.619 252.129L85.3188 159H46Z" fill="#F05050"/>
</svg>
