<?xml version="1.0" standalone="no"?>
<!DOCTYPE svg PUBLIC "-//W3C//DTD SVG 20010904//EN"
 "http://www.w3.org/TR/2001/REC-SVG-20010904/DTD/svg10.dtd">
<svg version="1.0" xmlns="http://www.w3.org/2000/svg"
 width="700.000000pt" height="700.000000pt" viewBox="0 0 700.000000 700.000000"
 preserveAspectRatio="xMidYMid meet">
<metadata>
Created by potrace 1.14, written by Peter Selinger 2001-2017
</metadata>
<g transform="translate(0.000000,700.000000) scale(0.100000,-0.100000)"
fill="#000000" stroke="none">
<path d="M630 3500 l0 -1330 365 0 365 0 2 626 3 626 214 -311 214 -311 237 0
237 0 199 287 c109 158 207 296 216 307 16 20 17 -12 18 -601 l0 -623 365 0
365 0 0 1330 0 1330 -263 0 c-239 0 -265 -2 -279 -17 -8 -10 -203 -296 -433
-635 -230 -340 -421 -618 -424 -618 -3 0 -188 269 -411 597 -223 328 -417 614
-433 635 l-27 38 -265 0 -265 0 0 -1330z"/>
<path d="M4958 4681 c-31 -28 -33 -33 -36 -110 -4 -88 -1 -84 -82 -97 -24 -3
-81 -19 -127 -34 l-82 -27 -37 63 c-46 79 -86 102 -146 85 -45 -14 -78 -59
-78 -106 0 -16 15 -56 34 -89 l33 -58 -106 -107 -106 -107 -61 33 c-33 18 -74
33 -90 33 -75 0 -128 -77 -100 -144 15 -36 33 -53 97 -89 l47 -27 -29 -90
c-16 -50 -33 -114 -37 -143 l-7 -52 -84 -5 c-78 -6 -85 -8 -112 -38 -22 -24
-29 -42 -29 -72 0 -30 7 -48 29 -72 27 -30 34 -32 112 -38 l84 -5 7 -51 c7
-45 42 -166 62 -216 6 -12 -4 -23 -41 -44 -66 -37 -84 -54 -99 -90 -28 -67 25
-144 100 -144 16 0 58 16 94 35 l64 36 20 -28 c12 -16 58 -64 104 -108 l83
-80 -35 -60 c-18 -33 -34 -73 -34 -90 0 -47 33 -92 78 -106 60 -17 100 6 146
85 l37 63 82 -27 c46 -15 103 -31 127 -34 81 -13 78 -9 82 -97 3 -77 5 -82 36
-110 25 -22 42 -29 75 -29 76 1 107 43 107 149 0 79 -11 69 105 92 33 6 88 22
123 35 l62 23 30 -53 c52 -91 100 -119 164 -92 73 31 85 95 33 190 l-33 61
107 106 107 106 59 -33 c89 -52 152 -43 188 26 32 62 8 113 -79 164 l-65 37
15 34 c16 39 49 162 59 218 l6 37 70 0 c104 0 152 35 152 110 0 75 -48 110
-152 110 l-70 0 -6 38 c-10 55 -43 178 -59 217 l-15 34 65 37 c87 51 111 102
79 164 -36 69 -99 78 -188 26 l-59 -33 -107 106 -107 106 33 61 c52 95 40 159
-33 190 -64 27 -112 -1 -164 -92 l-29 -52 -63 23 c-35 12 -90 28 -123 34 -116
23 -105 13 -105 92 0 106 -31 148 -107 149 -33 0 -50 -7 -75 -29z m307 -444
c272 -90 465 -308 529 -599 l6 -28 -228 0 -229 0 -17 39 c-25 53 -101 126
-161 152 -31 14 -78 24 -125 27 l-75 5 -109 189 c-66 115 -105 193 -99 199 5
5 42 18 83 29 111 30 313 24 425 -13z m-596 -329 l110 -191 -19 -27 c-38 -53
-55 -113 -55 -190 0 -77 17 -137 55 -190 l19 -27 -110 -191 c-61 -106 -116
-192 -122 -192 -22 0 -136 130 -179 203 -23 39 -56 110 -72 157 -29 81 -31 93
-31 240 0 147 2 159 31 240 16 47 49 118 72 157 43 73 157 203 179 203 6 0 61
-86 122 -192z m437 -332 c28 -28 34 -42 34 -76 0 -35 -6 -48 -35 -77 -33 -33
-39 -35 -82 -30 -100 11 -135 116 -63 188 42 43 100 41 146 -5z m688 -213
c-64 -292 -257 -511 -529 -600 -116 -38 -297 -44 -415 -14 -46 12 -88 25 -93
30 -6 6 33 83 99 199 l109 189 75 5 c46 3 93 13 122 26 61 27 140 101 163 152
l18 40 229 0 228 0 -6 -27z"/>
</g>
</svg>
